HIERARCHY
ROOT Hips
{
  OFFSET 265.287 66.7526 -254.649
  CHANNELS 6 Xposition Yposition Zposition Zrotation Xrotation Yrotation
  JOINT LeftUpLeg
  {
    OFFSET 8.64259 1.95398 -2.38835
    CHANNELS 3 Zrotation Xrotation Yrotation
    JOINT LeftLeg
    {
      OFFSET 43.7702 0 0
      CHANNELS 3 Zrotation Xrotation Yrotation
      JOINT LeftFoot
      {
        OFFSET 40.6238 0 0
        CHANNELS 3 Zrotation Xrotation Yrotation
        JOINT LeftToeBase
        {
          OFFSET 12.7242 0 0
          CHANNELS 3 Zrotation Xrotation Yrotation
          End Site
          {
            OFFSET 0 0 0
          }
        }
      }
    }
  }
  JOINT RightUpLeg
  {
    OFFSET -8.2249 1.95398 -2.59336
    CHANNELS 3 Zrotation Xrotation Yrotation
    JOINT RightLeg
    {
      OFFSET 43.5653 0 0
      CHANNELS 3 Zrotation Xrotation Yrotation
      JOINT RightFoot
      {
        OFFSET 40.6238 0 0
        CHANNELS 3 Zrotation Xrotation Yrotation
        JOINT RightToeBase
        {
          OFFSET 12.7242 0 0
          CHANNELS 3 Zrotation Xrotation Yrotation
          End Site
          {
            OFFSET 0 0 0
          }
        }
      }
    }
  }
  JOINT Spine
  {
    OFFSET 0.165834 0.87714 6.61349
    CHANNELS 3 Zrotation Xrotation Yrotation
    JOINT Spine1
    {
      OFFSET 7.38963 1.71661e-005 0
      CHANNELS 3 Zrotation Xrotation Yrotation
      JOINT Spine2
      {
        OFFSET 11.9445 1.14441e-005 0
        CHANNELS 3 Zrotation Xrotation Yrotation
        JOINT Spine3
        {
          OFFSET 14.7254 4.19617e-005 0
          CHANNELS 3 Zrotation Xrotation Yrotation
          JOINT Spine4
          {
            OFFSET 10.9679 0 0
            CHANNELS 3 Zrotation Xrotation Yrotation
            JOINT RightShoulder
            {
              OFFSET 2.46616 -1.6653 3.69651
              CHANNELS 3 Zrotation Xrotation Yrotation
              JOINT RightArm
              {
                OFFSET 13.0012 0 0
                CHANNELS 3 Zrotation Xrotation Yrotation
                JOINT RightForeArm
                {
                  OFFSET 28.7848 1.52588e-005 0
                  CHANNELS 3 Zrotation Xrotation Yrotation
                  JOINT RightHand
                  {
                    OFFSET 26.5688 1.52588e-005 0
                    CHANNELS 3 Zrotation Xrotation Yrotation
                    End Site
                    {
                      OFFSET 0 0 0
                    }
                  }
                }
              }
            }
            JOINT LeftShoulder
            {
              OFFSET 2.38034 -1.29275 -3.7523
              CHANNELS 3 Zrotation Xrotation Yrotation
              JOINT LeftArm
              {
                OFFSET 16.3182 6.10351e-005 0
                CHANNELS 3 Zrotation Xrotation Yrotation
                JOINT LeftForeArm
                {
                  OFFSET 27.0901 0 0
                  CHANNELS 3 Zrotation Xrotation Yrotation
                  JOINT LeftHand
                  {
                    OFFSET 24.5451 1.52588e-005 0
                    CHANNELS 3 Zrotation Xrotation Yrotation
                    End Site
                    {
                      OFFSET 0 0 0
                    }
                  }
                }
              }
            }
            JOINT Neck
            {
              OFFSET 5.0226 -0.0266342 0
              CHANNELS 3 Zrotation Xrotation Yrotation
              JOINT Head
              {
                OFFSET 6.69364 2.86102e-005 0
                CHANNELS 3 Zrotation Xrotation Yrotation
                End Site
                {
                  OFFSET 0 0 0
                }
              }
            }
          }
        }
      }
    }
  }
}
MOTION
Frames:	12
Frame Time:	0.0416667
-353.127 59.2918 2.63728 -39.6323 -0.0184527 83.5375 -1.89657 -4.42773 -62.83 -84.712 49.0231 -30.673 103.362 42.1968 -6.28007 6.99878 0.622338 20.0721 -33.0612 -31.884 -106.107 -82.3783 -29.4501 17.4391 59.9134 -9.89897 -0.317993 48.7762 9.79117 133.193 -0.545156 9.2583 -108.887 5.42821 -8.76882 -37.0746 -6.72004 -10.2837 -36.7361 -25.1698 1.92923 -37.9104 -5.15715 1.92924 -37.9104 160.582 -39.6764 7.72144 65.0242 63.8716 9.70793 -134.244 11.1321 -148.587 55.9102 11.0714 15.3963 -73.1956 35.6335 19.0553 22.3901 27.7023 -103.436 -35.5179 56.0313 -0.0888138 53.6631 -19.124 -39.3532 -24.2418 -44.0526 -134.307 81.789 50.4992 75.9517 
-354.258 58.9407 2.3241 -39.7377 0.251734 83.3282 -1.2722 -0.622706 -54.9316 -76.1053 51.1252 -46.2424 103.091 42.6592 -16.897 5.39465 1.30172 18.658 -33.1235 -33.0112 -106.245 -86.2322 -25.8222 16.4292 61.5216 -13.6945 3.56194 48.0559 8.49954 132.625 -0.576581 9.2337 -108.884 5.46719 -8.83691 -37.0668 -6.68037 -10.3515 -36.7257 -25.1317 1.86128 -37.9192 -5.11904 1.86125 -37.9192 160.62 -39.7112 7.73804 63.5354 64.6706 10.2216 -133.191 12.1439 -149.351 55.9048 10.9881 15.247 -73.7781 35.0305 18.866 19.9205 28.6005 -102.428 -35.5304 60.3192 -0.100216 54.9812 -19.9325 -39.8413 -24.1502 -44.0902 -134.143 81.3968 50.2511 76.212 
-357.465 57.9375 1.44129 -39.9945 1.03613 82.7481 -8.87578 21.1198 -32.274 30.1265 9.41048 -87.8413 38.9097 35.0629 82.8552 1.27236 3.08282 15.5228 -33.2994 -35.9863 -106.446 -97.283 -11.5133 13.6866 69.9788 -26.6991 20.6415 46.8584 5.69563 128.517 -0.671819 9.16192 -108.876 5.57952 -9.04251 -37.0439 -6.56609 -10.5561 -36.6952 -25.0221 1.65624 -37.9466 -5.00945 1.65625 -37.9466 160.703 -39.7851 7.7762 59.1559 66.8634 11.8926 -130.109 14.9026 -151.411 56.1193 10.6725 14.5851 -75.3657 33.3876 18.3357 12.0009 30.8752 -98.8562 -34.1772 72.7667 -0.163229 58.5231 -22.0393 -40.8886 -23.8815 -44.2128 -133.704 80.2073 49.5298 77.0271 
-362.494 56.354 0.0651137 -40.2979 2.31573 81.8757 -28.1001 36.1673 -15.0987 99.5053 -26.7078 -89.4338 39.3364 -30.1929 59.3944 -4.06343 5.38556 12.4862 -33.5494 -40.1239 -106.234 -111.109 8.93559 10.8935 97.5786 -45.0429 57.2394 48.6764 4.31585 113.55 -0.83424 9.04468 -108.863 5.76106 -9.39168 -37.006 -6.38118 -10.9038 -36.6445 -24.8454 1.30832 -37.9941 -4.83275 1.30833 -37.9941 160.776 -39.8493 7.81094 51.7479 70.0254 15.2176 -125.039 18.8596 -154.306 57.076 9.93822 12.8953 -77.7319 30.9432 17.5253 -3.4189 33.0923 -90.9239 150.66 88.0934 -178.78 63.6691 -24.7944 -41.6178 -23.4624 -44.3989 -133.075 78.2312 48.3326 78.4112 
-369.243 54.525 -1.82476 -40.5148 4.1039 80.7813 -37.1213 33.1046 -7.95313 90.3213 -28.6541 -90.0083 44.6666 -24.8653 56.9705 -9.53542 7.6366 10.4459 -33.5403 -44.2838 -105.919 -121.873 14.5476 8.18319 143.627 -57.5187 99.8989 57.0327 9.3092 87.8938 -1.06947 8.88355 -108.845 6.00729 -9.89471 -36.9504 -6.1299 -11.4045 -36.5703 -24.6072 0.806824 -38.0617 -4.59458 0.806827 -38.0618 160.798 -39.8796 7.81313 40.7782 73.5361 21.1023 -118.151 23.3806 -157.312 59.1645 8.46144 9.623 -80.6912 27.8976 16.495 -27.9335 31.4433 -77.3717 166.507 66.0461 -179.951 69.7288 -27.3583 -41.2417 -22.9522 -44.5618 -132.352 75.5572 46.605 80.2837 
-377.699 53.3584 -4.30097 -40.4646 6.44798 79.5057 -44.1582 28.5172 -3.64437 84.2049 -31.402 -93.185 48.3563 -23.4995 53.3264 -14.6051 9.53619 9.40582 -31.2416 -47.4948 -104.811 -130.04 6.4719 4.80087 -167.118 -64.7694 143.432 64.1049 7.45863 64.2135 -1.3862 8.68321 -108.819 6.30801 -10.5661 -36.869 -5.82199 -12.0726 -36.464 -24.3202 0.135879 -38.1453 -4.30759 0.135867 -38.1454 160.77 -39.9089 7.75721 25.5555 76.6307 30.5871 -110.077 27.9399 -159.38 62.2621 5.80576 4.44218 -84.1102 24.3992 15.3113 -56.8727 20.6605 -62.9561 -170.722 43.6414 179.981 75.6704 -29.0781 -39.769 -22.4484 -44.545 -131.637 72.3743 44.2602 82.4388 
-387.33 53.5288 -7.33359 -39.8847 9.42146 78.0054 -49.6719 24.487 -2.06999 77.6326 -31.6975 -96.73 51.5938 -22.1158 50.4349 -19.0604 11.0108 9.07415 -21.221 -49.3935 -97.8499 -137.825 7.73913 -0.831181 -139.817 -61.5456 167.167 60.5946 4.05785 51.0859 -1.75205 10.6382 -110.596 4.7361 -12.1916 -41.4004 -7.61131 -13.804 -40.9499 -24.0683 -0.903994 -42.9484 -4.0557 -0.903994 -42.9484 160.53 -40.4379 7.07576 5.31202 76.8127 45.3931 -102.433 32.2947 -158.885 65.5688 1.59915 -2.58695 -89.6471 18.8422 13.9653 -89.1161 0.261532 -50.994 -141.525 11.1589 179.945 80.4038 -29.8355 -37.9835 -24.4638 -40.3548 -131.505 71.9767 40.6169 81.4133 
-397.056 54.7659 -10.5986 -38.3875 13.1104 76.0414 -54.3152 22.095 -1.43822 72.0002 -30.2292 -99.4518 55.5221 -20.1625 48.8929 -22.8437 12.1059 9.1464 -11.346 -46.8249 -89.8725 -144.081 20.6336 -5.40162 -138.778 -56.9026 162.607 48.8653 -0.137949 43.0869 2.19669 3.63247 -78.4137 10.4839 8.45435 20.6975 -1.04152 9.39113 20.333 -25.1338 1.44038 22.1006 -5.12118 1.44036 22.1006 162.561 -35.0482 13.7085 151.225 79.1263 -111.42 -92.1298 36.6574 -160.692 67.7875 -3.78175 -10.5969 -70.5031 37.2624 14.3333 -15.3217 4.00378 -108.834 171.021 82.0981 -179.899 80.9851 -35.3593 -43.5839 75.0173 -76.2287 -43.7752 34.9227 30.2505 116.384 
-405.852 56.4523 -13.6442 -35.4369 17.5448 73.05 -59.0808 21.5064 0.448007 68.178 -28.3825 -100.943 60.7727 -17.775 48.7751 -25.985 12.9111 9.40004 -11.4389 -37.7752 -87.3276 -148.868 39.1887 -7.01363 -156.16 -52.1567 137.236 32.3246 -3.4288 35.574 2.41817 11.6605 -74.4259 1.05905 10.6171 30.8265 -10.9208 11.9017 30.3942 -30.6177 1.39548 32.4059 -10.6051 1.39549 32.4059 -179.401 -47.7416 23.0642 160.49 32.3915 -147.163 -82.0024 34.208 -166.673 67.3279 -8.76108 -18.0211 -65.0234 45.2596 26.7649 28.696 -33.2687 -121.666 -30.2495 32.6204 -0.0515321 77.3378 -38.9456 -50.2002 128.794 -5.02857 16.1521 8.00199 -19.913 123.398 
-413.207 57.9632 -16.0989 -30.2752 22.5166 68.0699 -64.8243 22.141 5.03161 66.0423 -27.1696 -101.638 67.1412 -15.0388 49.953 -28.5354 13.515 9.68932 -17.8301 -20.7181 -83.9144 -151.926 59.5623 -8.20596 175.046 -38.7231 103.331 15.6794 -4.09928 26.0837 2.49891 12.5013 -74.7028 -0.55822 10.4579 30.4138 -12.5301 11.7269 29.9863 -32.3001 1.34668 31.9727 -12.2875 1.34667 31.9727 -175.158 -51.0171 24.9359 159.464 27.5181 -154.698 -82.36 35.15 -159.732 65.0312 -13.7845 -26.2792 -63.6959 46.2939 25.4792 32.4365 -35.1405 -118.507 -31.3681 18.5412 -0.0471305 71.4047 -41.6188 -58.0049 130.612 -4.04302 16.3068 6.91472 -26.5863 121.578 
-419.067 58.7543 -17.7655 -21.7241 27.1883 59.756 -72.1785 23.1724 13.138 65.2081 -27.0863 -102.046 74.0157 -11.7305 52.4646 -30.5263 13.9986 9.90343 -30.5919 4.06999 -90.0614 -151.743 73.6206 -10.6522 148.491 -14.9203 79.2612 8.29569 -1.87714 16.2795 2.62451 13.3724 -74.983 -2.25037 10.381 30.011 -14.2138 11.6347 29.5852 -34.0556 1.37534 31.5701 -14.0429 1.37535 31.5701 -168.676 -55.829 27.934 155.898 24.1716 -162.216 -86.4277 35.2523 -151.331 60.8506 -17.4239 -33.9513 -64.239 45.7118 25.3193 33.9841 -33.3447 -116.129 -31.4967 5.06378 -0.044057 61.8441 -41.5874 -66.6678 132.651 -6.77764 15.112 6.08905 -30.8946 119.225 
-423.172 58.311 -18.496 -8.46003 29.2555 47.0732 -81.8115 24.3749 26.0086 65.8118 -28.6247 -102.311 80.8914 -7.08523 56.6812 -31.9498 14.4393 9.93559 -55.9688 27.6667 -66.3643 -150.211 76.8402 -11.0137 127.501 8.74784 71.9918 13.2051 -0.969426 12.7921 2.94091 14.1399 -75.2799 -3.79198 10.7033 29.6104 -15.744 11.9414 29.1702 -35.6624 1.78928 31.2739 -15.6498 1.7893 31.2739 -159.167 -61.7126 33.1174 149.292 25.3043 -169.652 -93.9899 34.0931 -141.414 55.4 -19.4262 -40.7162 -67.98 42.1514 26.7766 31.6817 -25.9042 -115.195 -30.4462 -1.64526 -0.0422934 53.957 -37.7946 -69.5143 134.034 -14.9725 11.919 5.3888 -31.7591 116.03 
